<svg width="986" height="206" viewBox="0 0 986 206" fill="none" xmlns="http://www.w3.org/2000/svg">
<path d="M17.571 150.448V162.756H0.153992V0.315994H17.571V54.365C23.599 44.61 36.117 39.754 47.044 39.754C69.317 39.754 93.892 51.351 93.892 86.602V118.169C93.892 153.42 69.317 165.017 47.044 165.017C36.159 165.059 23.641 160.202 17.571 150.448ZM76.518 86.393C76.518 66.422 62.577 56.458 47.044 56.458C31.512 56.458 17.571 66.422 17.571 86.393V118.42C17.571 138.39 31.512 148.354 47.044 148.354C62.577 148.354 76.518 138.39 76.518 118.42V86.393Z" fill="white"/>
<path d="M160.543 193.151C157.277 202.445 149.155 205.208 134.084 205.459H127.343V188.755H136.177C143.587 188.755 145.22 185.95 146.602 181.805L152.881 164.64L109.006 43.019H127.553L161.883 140.232L196.213 43.019H214.759L160.543 193.151Z" fill="white"/>
<path d="M323.401 80.824H305.776C303.473 64.58 290.704 56.458 276.763 56.458C261.23 56.458 247.289 66.422 247.289 86.392V118.42C247.289 138.39 261.23 148.354 276.763 148.354C290.704 148.354 303.431 140.232 305.776 123.988H323.401C320.848 154.843 297.863 165.059 276.763 165.059C254.49 165.059 229.915 153.713 229.915 118.211V86.644C229.915 51.392 254.49 39.795 276.763 39.795C297.905 39.754 320.848 49.969 323.401 80.824Z" fill="white"/>
<path d="M443.138 118.211C443.138 153.462 418.521 165.059 396.248 165.059C373.976 165.059 349.4 153.462 349.4 118.211V86.644C349.4 51.393 373.976 39.796 396.248 39.796C418.521 39.796 443.138 51.393 443.138 86.644V118.211ZM425.764 86.393C425.764 66.423 411.823 56.458 396.29 56.458C380.758 56.458 366.817 66.423 366.817 86.393V118.42C366.817 138.39 380.758 148.354 396.29 148.354C411.823 148.354 425.764 138.39 425.764 118.42V86.393Z" fill="white"/>
<path d="M471.482 118.211V86.644C471.482 51.392 496.058 39.796 518.33 39.796C529.216 39.796 541.775 44.652 547.804 54.407V0.315994H565.22V162.714H547.804V150.406C541.775 160.16 529.257 165.017 518.33 165.017C496.058 165.059 471.482 153.462 471.482 118.211ZM488.857 118.42C488.857 138.39 502.798 148.354 518.33 148.354C533.863 148.354 547.804 138.39 547.804 118.42V86.392C547.804 66.422 533.905 56.458 518.33 56.458C502.798 56.458 488.857 66.422 488.857 86.392V118.42Z" fill="white"/>
<path d="M672.396 125.161H690.273C687.259 155.095 664.525 165.059 643.634 165.059C621.362 165.059 596.786 153.462 596.786 118.211V86.644C596.786 51.393 621.362 39.796 643.634 39.796C665.907 39.796 690.524 51.393 690.524 86.644V106.823H614.202V118.42C614.202 138.39 628.144 148.354 643.676 148.354C657.324 148.354 669.633 140.693 672.396 125.161ZM673.108 86.393C673.108 66.423 659.208 56.458 643.634 56.458C628.102 56.458 614.161 66.423 614.161 86.393V90.789H673.108V86.393Z" fill="white"/>
<path d="M738.337 55.537C744.365 45.782 756.883 40.926 767.81 40.926H775.472V57.63H767.81C752.278 57.63 738.337 67.594 738.337 87.565V162.756H720.92V43.019H738.337V55.537Z" fill="white"/>
<path d="M859.46 78.061C857.36 64.12 848.07 56.5 833.25 56.5C820.27 56.5 810.723 62.99 810.723 73.917C810.723 83.881 817.464 88.319 827.18 90.621L849.7 96.189C867.79 100.585 880.35 109.628 880.35 131.692C880.35 155.346 862.47 165.101 838.1 165.101C813.068 165.101 791.926 153.504 790.083 124.491H807.96C809.593 141.447 822.11 148.396 838.1 148.396C854.81 148.396 862.47 141.656 862.72 131.231C862.72 123.57 859.25 116.829 846.02 113.606L822.57 107.786C809.593 104.772 793.098 95.938 793.098 74.586C793.098 52.565 811.435 39.796 833.46 39.796C857.57 39.796 875.45 51.393 877.29 78.061H859.46Z" fill="white"/>
<path d="M891.48 191.727V176.656H985.22V191.727H891.48Z" fill="white"/>
</svg>
